<?xml version="1.0" encoding="UTF-8"?>
<svg width="752pt" height="752pt" version="1.1" viewBox="0 0 752 752" xmlns="http://www.w3.org/2000/svg">
 <defs>
  <clipPath id="b">
   <path d="m139.21 139.21h96.789v473.58h-96.789z"/>
  </clipPath>
  <clipPath id="a">
   <path d="m257 139.21h355.79v473.58h-355.79z"/>
  </clipPath>
 </defs>
 <g clip-path="url(#b)">
  <path d="m216.91 165.11h-11.098v-7.3984c-0.007813-4.9062-1.957-9.6055-5.4258-13.074s-8.168-5.4219-13.074-5.4258h-29.598c-4.9062 0.003906-9.6055 1.957-13.074 5.4258s-5.4219 8.168-5.4258 13.074v392.18c0.011718 0.35156 0.046874 0.70703 0.10547 1.0547 0.015625 0.11719 0.011719 0.23828 0.035156 0.35547 0.10938 0.55469 0.28516 1.0977 0.51953 1.6172 0.015625 0.035156 0.015625 0.070313 0.03125 0.10156l25.898 55.496h0.003907c1.2148 2.6055 3.8281 4.2734 6.7031 4.2734s5.4922-1.668 6.707-4.2734l25.898-55.496c0.015625-0.035157 0.019531-0.070313 0.03125-0.10156h0.003907c0.23437-0.51953 0.41016-1.0625 0.51953-1.6172 0.023437-0.11719 0.019531-0.23438 0.035156-0.35547 0.058594-0.34766 0.09375-0.70312 0.10547-1.0547v-369.98h11.098c1.293 0 3.6992 0 3.6992 7.3984l0.003906 96.195c0 4.0898 3.3125 7.4023 7.3984 7.4023 4.0859 0 7.3984-3.3125 7.3984-7.4023v-96.195c0-16.367-9.5547-22.199-18.5-22.199zm-44.398 422.79-14.277-30.602h28.559zm18.5-45.398h-36.996v-22.199h36.996zm0-37h-36.996v-22.199h36.996zm0-37h-36.996v-22.199h36.996zm0-37-36.996 0.003906v-22.199h36.996zm0-37-36.996 0.003906v-203.49h36.996zm0-218.29-36.996 0.007813v-18.5c0-2.043 1.6562-3.6992 3.6992-3.6992h29.598c2.043 0 3.6992 1.6562 3.6992 3.6992z"/>
 </g>
 <path d="m313.11 450v29.598h29.609l-0.011719-29.598zm14.801 22.199h-0.003906c-2.9922 0-5.6914-1.8047-6.8359-4.5703-1.1445-2.7656-0.51172-5.9453 1.6055-8.0625 2.1172-2.1172 5.2969-2.75 8.0625-1.6055 2.7656 1.1445 4.5703 3.8438 4.5703 6.8359 0 1.9648-0.78125 3.8438-2.168 5.2344-1.3906 1.3867-3.2695 2.168-5.2344 2.168z"/>
 <path d="m313.11 302v29.598h29.609l-0.011719-29.598zm14.801 22.199h-0.003906c-2.9922 0-5.6914-1.8008-6.8359-4.5664-1.1445-2.7656-0.51172-5.9492 1.6055-8.0664 2.1172-2.1133 5.2969-2.75 8.0625-1.6016 2.7656 1.1445 4.5703 3.8438 4.5703 6.8359 0 1.9609-0.78125 3.8438-2.168 5.2305-1.3906 1.3906-3.2695 2.168-5.2344 2.168z"/>
 <path d="m313.11 228.01v29.598h29.609l-0.011719-29.598zm14.801 22.199h-0.003906c-2.9922 0-5.6914-1.8047-6.8359-4.5703-1.1445-2.7617-0.51172-5.9453 1.6055-8.0625 2.1172-2.1172 5.2969-2.75 8.0625-1.6055 2.7656 1.1484 4.5703 3.8438 4.5703 6.8398 0 1.9609-0.78125 3.8438-2.168 5.2305-1.3906 1.3867-3.2695 2.168-5.2344 2.168z"/>
 <path d="m313.11 376v29.598h29.609l-0.011719-29.598zm14.801 22.199h-0.003906c-2.9922 0-5.6914-1.8008-6.8359-4.5664-1.1445-2.7656-0.51172-5.9492 1.6055-8.0625 2.1172-2.1172 5.2969-2.75 8.0625-1.6055 2.7656 1.1445 4.5703 3.8438 4.5703 6.8359 0 1.9609-0.78125 3.8438-2.168 5.2305-1.3906 1.3906-3.2695 2.168-5.2344 2.168z"/>
 <g clip-path="url(#a)">
  <path d="m583.19 139.21h-295.99c-7.8438 0.007812-15.367 3.1289-20.918 8.6797-5.5469 5.5469-8.6719 13.07-8.6797 20.918v414.38c0.007812 7.8477 3.1328 15.371 8.6797 20.922 5.5508 5.5469 13.074 8.668 20.918 8.6797h222.92c0.039062 0 0.074218-0.011719 0.11328-0.011719 0.44531-0.003906 0.89062-0.046875 1.3281-0.13281 0.18359-0.035157 0.35547-0.10938 0.53125-0.16016 0.28906-0.066406 0.57031-0.15234 0.84766-0.25781 0.18359-0.074219 0.34766-0.1875 0.52734-0.27734 0.25781-0.12109 0.50781-0.25391 0.75-0.40234 0.41016-0.26953 0.78906-0.58203 1.1328-0.92578l95.273-95.273c0.45312-0.46875 0.84375-0.99219 1.1562-1.5664 0.082031-0.14062 0.15625-0.28125 0.22656-0.42578h0.003907c0.28906-0.56641 0.50391-1.168 0.63672-1.793v-0.015625c0.09375-0.47266 0.14453-0.94922 0.14453-1.4297v-341.31c-0.011719-7.8477-3.1328-15.371-8.6797-20.918-5.5508-5.5508-13.074-8.6719-20.922-8.6797zm-225.69 340.39c-0.007812 3.9219-1.5664 7.6836-4.3398 10.461-2.7773 2.7734-6.5391 4.332-10.461 4.3398h-29.598c-3.9258-0.007813-7.6875-1.5664-10.461-4.3398-2.7734-2.7773-4.3359-6.5391-4.3398-10.461v-29.598c0.003906-3.9258 1.5664-7.6875 4.3398-10.461 2.7734-2.7734 6.5352-4.3359 10.461-4.3398h29.598c3.9219 0.003906 7.6836 1.5664 10.461 4.3398 2.7734 2.7734 4.332 6.5352 4.3398 10.461zm0-73.996c-0.007812 3.9219-1.5664 7.6836-4.3398 10.457-2.7773 2.7773-6.5391 4.3359-10.461 4.3398h-29.598c-3.9258-0.003907-7.6875-1.5625-10.461-4.3398-2.7734-2.7734-4.3359-6.5352-4.3398-10.457v-29.602c0.003906-3.9219 1.5664-7.6836 4.3398-10.457 2.7734-2.7773 6.5352-4.3359 10.461-4.3398h29.598c3.9219 0.003906 7.6836 1.5625 10.461 4.3398 2.7734 2.7734 4.332 6.5352 4.3398 10.457zm0-73.996v-0.003907c-0.007812 3.9258-1.5664 7.6875-4.3398 10.461-2.7773 2.7734-6.5391 4.3359-10.461 4.3398h-29.598c-3.9258-0.003906-7.6875-1.5664-10.461-4.3398-2.7734-2.7734-4.3359-6.5352-4.3398-10.461v-29.598c0.003906-3.9219 1.5664-7.6836 4.3398-10.461 2.7734-2.7734 6.5352-4.332 10.461-4.3398h29.598c3.9219 0.007813 7.6836 1.5664 10.461 4.3398 2.7734 2.7773 4.332 6.5391 4.3398 10.461zm0-73.996v-0.003906c-0.007812 3.9258-1.5664 7.6875-4.3398 10.461-2.7773 2.7734-6.5391 4.3359-10.461 4.3398h-29.598c-3.9258-0.003906-7.6875-1.5664-10.461-4.3398-2.7734-2.7734-4.3359-6.5352-4.3398-10.461v-29.598c0.003906-3.9258 1.5664-7.6875 4.3398-10.461 2.7734-2.7734 6.5352-4.3359 10.461-4.3398h29.598c3.9219 0.003907 7.6836 1.5664 10.461 4.3398 2.7734 2.7734 4.332 6.5352 4.3398 10.461zm47.789 214.59c-4.0898 0-7.4023-3.3164-7.4023-7.4023s3.3125-7.3984 7.4023-7.3984h148.3c4.0859 0 7.3984 3.3125 7.3984 7.3984s-3.3125 7.4023-7.3984 7.4023zm0-162.79 148.3-0.003906c4.0859 0 7.3984 3.3164 7.3984 7.4023 0 4.0859-3.3125 7.3984-7.3984 7.3984h-148.3c-4.0898 0-7.4023-3.3125-7.4023-7.3984 0-4.0859 3.3125-7.4023 7.4023-7.4023zm-7.3984-66.598h-0.003906c0-4.0898 3.3125-7.4023 7.4023-7.4023h148.3c4.0859 0 7.3984 3.3125 7.3984 7.4023 0 4.0859-3.3125 7.3984-7.3984 7.3984h-148.3c-4.0898 0-7.4023-3.3125-7.4023-7.3984zm7.3984 140.59h148.3c4.0859 0 7.3984 3.3125 7.3984 7.3984 0 4.0859-3.3125 7.3984-7.3984 7.3984h-148.3c-4.0898 0-7.4023-3.3125-7.4023-7.3984 0-4.0859 3.3125-7.3984 7.4023-7.3984zm147.23 169.12-35.008 35v-55.207c0.003907-3.9258 1.5664-7.6875 4.3398-10.461s6.5352-4.3359 10.461-4.3398h55.207zm45.465-368.92h-325.59v-14.801c0.003906-3.9219 1.5625-7.6836 4.3398-10.461 2.7734-2.7734 6.5352-4.332 10.457-4.3359h295.99c3.9258 0.003906 7.6875 1.5625 10.461 4.3359 2.7773 2.7773 4.3359 6.5391 4.3398 10.461z"/>
 </g>
</svg>
