<?xml version="1.0" encoding="UTF-8"?>
<svg width="752pt" height="752pt" version="1.1" viewBox="0 0 752 752" xmlns="http://www.w3.org/2000/svg">
 <g>
  <path d="m548.57 417.62c11.984-17.293 11.625-37.672-0.85937-46.355-12.484-8.6094-31.715-1.793-43.699 15.57-2.5117 3.6602-4.5195 7.4609-5.8828 11.336 0-0.070313-0.070312-0.070313-0.070312-0.14453-1.2188-1.6484-2.7969-6.0273 0.21484-16.648 7.8945-27.625-6.0977-51.52-6.8867-52.812-0.28516-0.42969-32.004-45.207-90.914-17.078-2.7266 0.71875-18.871 4.5195-34.441 1.4336-1.5781-0.28516-3.2305 0.070312-4.4492 1.1484s-1.9375 2.582-1.9375 4.1602v101.68c0 34.227 21.098 63.645 50.875 75.988v7.8203c0 27.625 22.461 50.086 50.086 50.086s50.086-22.461 50.086-50.086v-43.984c3.0859-7.0312 5.0938-14.711 5.668-22.676 10.902 0.37109 23.746-7.0898 32.211-19.434zm-48.648 85.891c0 21.668-17.652 39.32-39.32 39.32-21.668 0-39.32-17.652-39.32-39.32v-4.3047c6.5312 1.7227 13.348 2.6562 20.449 2.6562h4.5938c21.527 0 40.758-9.7578 53.672-25.043l-0.003906 26.691zm13.133-78.211c-1.793-0.64453-4.2344-0.42969-5.7422 0.78906s-2.1523 3.2305-1.793 5.0938c0.070313 0.28516 0.14453 0.64453 0.28516 0.93359-0.35938 32.578-26.98 58.91-59.555 58.91h-4.5938c-39.32 0-71.324-32.004-71.324-71.395v-95.289c17.223 1.793 32.719-2.4414 33.508-2.6562 0.28516-0.070313 0.57422-0.21484 0.85938-0.35938 50.66-24.469 76.707 11.77 77.637 12.988 0.14453 0.21484 12.199 21.023 5.5977 44.059-3.3008 11.625-2.7969 20.449 1.6484 26.262 4.5938 6.0273 11.336 6.0977 12.125 6.0977 1.3633 0 2.7969-0.64453 3.8047-1.6484 0.78906-0.78906 1.293-1.793 1.5078-2.8711 0.93359-4.3789 2.9414-8.9688 5.957-13.203 8.3242-11.984 21.453-17.797 28.703-12.844 7.2461 5.0938 6.457 19.445-1.8672 31.43-7.2461 10.547-18.297 16.504-26.047 14.062-0.28125-0.21484-0.49609-0.28906-0.71094-0.35938z"/>
  <path d="m401.91 380.45h-12.344c-2.9414 0-5.3828 2.4414-5.3828 5.3828 0 2.9414 2.4414 5.3828 5.3828 5.3828h12.344c2.9414 0 5.3828-2.4414 5.3828-5.3828-0.003906-2.9414-2.3711-5.3828-5.3828-5.3828z"/>
  <path d="m443.09 380.45h-12.344c-2.9414 0-5.3828 2.4414-5.3828 5.3828 0 2.9414 2.4414 5.3828 5.3828 5.3828h12.344c2.9414 0 5.3828-2.4414 5.3828-5.3828-0.003906-2.9414-2.4414-5.3828-5.3828-5.3828z"/>
  <path d="m444.67 428.74c-3.5859-1.793-7.3906-2.6562-11.121-2.6562-9.2578 0-18.152 5.0938-22.531 13.922-1.3633 2.6562-0.21484 5.8828 2.4414 7.2461 2.6562 1.293 5.8828 0.21484 7.2461-2.4414 3.5156-7.1055 12.125-9.9727 19.23-6.457 2.6562 1.293 5.8828 0.21484 7.1758-2.4414 1.2891-2.582 0.21094-5.8086-2.4414-7.1719z"/>
  <path d="m258.54 274.9c10.117-0.57422 16.863-3.7305 20.164-9.1836 2.8711-4.8789 2.6562-10.977-0.71875-18.082-4.8086-10.117-2.3672-18.082 7.1055-23.75 6.0977-3.6602 10.547-9.2578 12.559-15.859 2.1523-7.1758 0.28516-11.77-1.6484-14.352-3.3711-4.5195-9.3281-6.7461-18.227-6.7461-11.48 0-16.719-2.9414-19.086-5.3828-2.5117-2.582-2.4414-5.2383-2.4414-5.2383 0-0.50391 0-0.93359-0.070313-1.4336-4.4492-22.891-18.871-25.832-27.125-25.688-10.047 0.28906-19.52 6.1016-25.621 15.5-11.121 17.363-26.117 21.383-36.09 24.039-10.047 2.6562-18.441 13.777-18.371 24.324 0 4.5195 1.8672 15.5 18.441 19.734 4.1602 1.0781 6.8164 2.7969 7.75 5.0938 1.3633 3.1562 0.070313 8.4688-3.4453 14.496-3.8047 6.457-4.5938 13.848-2.2969 20.234 1.793 4.9492 5.3086 8.6094 9.9727 10.477 9.3281 3.7305 21.527-0.070312 27.41-2.4414 7.4609 6.2422 14.277 8.3945 20.09 8.3945 9.2578 0 16.145-5.4531 19.66-8.8984 3.1641-3.1562 7.3945-5.0234 11.988-5.2383zm-47-4.5195c-1.0039-1.0039-2.3672-1.5078-3.7305-1.5078-0.78906 0-1.5781 0.21484-2.3672 0.57422-3.6602 1.793-15.5 6.2422-22.027 3.6602-1.8672-0.78906-3.1562-2.082-3.9453-4.2344-1.2188-3.3008-0.64453-7.4609 1.4336-11.051 3.8047-6.457 7.5352-15.859 4.0898-24.109-2.2969-5.5977-7.3906-9.3984-14.996-11.336-6.8164-1.7227-10.332-4.8789-10.332-9.3984 0-6.0977 5.668-12.559 10.406-13.848 10.836-2.8711 28.988-7.75 42.406-28.629 4.0898-6.3867 10.406-10.332 16.719-10.547 5.3086-0.14453 13.059 1.3633 16.145 16.434 0 2.1523 0.64453 7.4609 5.168 12.344 5.5234 5.957 14.637 8.9688 27.195 8.9688 7.2461 0 9.1836 1.793 9.6133 2.3672 0.85938 1.2188 0.35938 3.5859 0 4.8789-1.2188 3.9453-4.0195 7.4609-7.75 9.6875-14.277 8.4688-18.512 22.531-11.336 37.598 1.0039 2.082 2.4414 5.8828 1.2188 7.9648-1.2188 2.082-5.5234 3.5859-11.551 3.9453-7.2461 0.42969-13.922 3.3711-18.871 8.3945-8.3281 8.1758-17.297 7.5312-27.488-2.1562z"/>
  <path d="m284.23 305.25c0-9.832-9.3281-17.797-20.738-17.797-2.9414 0-5.3828 2.4414-5.3828 5.3828 0 2.9414 2.4414 5.3828 5.3828 5.3828 5.3828 0 9.9727 3.2305 9.9727 7.0312 0 3.8047-4.5938 7.0312-9.9727 7.0312-5.3828 0-9.9727-3.2305-9.9727-7.0312 0-2.9414-2.4414-5.3828-5.3828-5.3828-2.9414 0-5.3828 2.4414-5.3828 5.3828 0 9.832 9.3281 17.797 20.738 17.797 11.41 0 20.738-8.0352 20.738-17.797z"/>
  <path d="m290.76 328.57c-9.543 0-17.293 6.6719-17.293 14.852s7.75 14.852 17.293 14.852c9.543 0 17.293-6.6719 17.293-14.852 0-8.1758-7.75-14.852-17.293-14.852zm0 18.945c-3.7305 0-6.5312-2.1523-6.5312-4.0898s2.7969-4.0898 6.5312-4.0898c3.7305 0 6.5312 2.1523 6.5312 4.0898-0.003906 1.9375-2.8008 4.0898-6.5312 4.0898z"/>
  <path d="m549.72 239.95c-5.0234 1.4336-11.195 0.71875-13.707 0.21484-2.9414-0.64453-5.7422 1.2188-6.3867 4.1602s1.2188 5.7422 4.0898 6.3867c0.78906 0.14453 4.4492 0.93359 9.1133 0.93359 5.3086 0 11.984-0.93359 17.148-4.7344 3.3008-2.4414 5.5977-5.7422 6.8164-9.7578 7.8203-4.8789 17.078-13.348 21.238-22.027 1.2188-2.4414 1.9375-4.8789 2.3672-7.2461 4.7344-1.6484 8.3242-4.8789 10.188-9.3984 7.6797-18.586-7.1758-32.434-22.746-43.555-2.4414-1.7227-5.8125-1.1484-7.5352 1.2188-1.7227 2.4414-1.1484 5.7422 1.2188 7.5352 20.379 14.566 22.387 22.531 19.016 30.641-0.42969 1.0039-1.0039 1.7227-1.793 2.2969-0.21484-0.42969-0.42969-0.93359-0.71875-1.3633-0.85938-1.8672-8.8984-18.012-20.953-20.953-4.8789-1.2188-9.7578-0.14453-14.062 3.1562-4.2344 3.1562-5.8125 7.75-4.3789 12.559 2.9414 9.6875 17.938 17.652 30.281 18.941-0.14453 0.35937-0.28516 0.78906-0.50391 1.2188-2.4414 5.2383-7.3203 10.262-12.055 14.062-2.7969-7.6797-9.543-13.633-12.988-16.289-11.91-9.2578-20.02-3.3711-22.961-0.42969-4.2344 4.2344-5.0938 9.9023-2.2969 15.57 3.8164 7.1758 13.574 14.133 21.609 16.859zm27.625-42.262c-10.691-2.2266-18.367-8.9688-18.367-11.121 0-0.070312 0.21484-0.28516 0.57422-0.57422 1.5078-1.1484 2.7969-1.4336 3.7305-1.4336 0.50391 0 0.93359 0.070312 1.293 0.14453 4.6641 1.0742 9.6836 7.6016 12.77 12.984zm-39.176 17.293c0.50391-0.50391 1.3633-1.3633 2.8711-1.3633 1.3633 0 3.2305 0.64453 5.8828 2.7266 4.5195 3.5156 9.543 9.043 10.047 13.848-0.35938 0.14453-0.71875 0.28516-1.0039 0.28516h-0.070313c-3.2305 0-15.285-6.3125-18.082-12.629-0.72266-1.6484-0.36328-2.2227 0.35547-2.8672z"/>
  <path d="m227.18 190.23c-5.668-1.0039-11.41 0.50391-15.785 4.1602-4.3086 3.6602-6.8203 9.0391-6.8203 14.711 0 2.9414 2.4414 5.3828 5.3828 5.3828 2.9414 0 5.3828-2.4414 5.3828-5.3828 0-2.5117 1.0781-4.8789 3.0156-6.457 1.9336-1.582 4.375-2.2266 6.957-1.7969 3.3008 0.57422 6.0977 3.3711 6.7461 6.7461 0.57422 3.3711-0.78906 6.6016-3.5859 8.5391-6.3125 4.3047-10.117 11.695-10.117 19.734 0 2.9414 2.4414 5.3828 5.3828 5.3828 2.9414 0 5.3828-2.4414 5.3828-5.3828 0-4.4492 2.0078-8.5391 5.3828-10.836 6.3125-4.3047 9.3984-11.695 8.1094-19.301-1.3008-7.8242-7.6836-14.137-15.434-15.5z"/>
  <path d="m230.91 253.73c0 3.9648-3.2148 7.1758-7.1758 7.1758-3.9648 0-7.1758-3.2109-7.1758-7.1758 0-3.9609 3.2109-7.1758 7.1758-7.1758 3.9609 0 7.1758 3.2148 7.1758 7.1758"/>
  <path d="m527.76 503.44c-2.9414-0.64453-5.7422 1.1484-6.457 4.0898-0.71875 2.9414 1.1484 5.8125 4.0898 6.457 38.746 8.6836 66.875 43.844 66.875 83.523 0 2.9414 2.4414 5.3828 5.3828 5.3828s5.3828-2.4414 5.3828-5.3828c0-44.773-31.645-84.312-75.273-94.07z"/>
  <path d="m393.37 503.44c-43.625 9.7578-75.27 49.297-75.27 94.07 0 2.9414 2.4414 5.3828 5.3828 5.3828 2.9414 0 5.3828-2.4414 5.3828-5.3828 0-39.754 28.129-74.84 66.875-83.523 2.8711-0.64453 4.7344-3.5156 4.0898-6.457-0.64844-2.9414-3.5195-4.7344-6.4609-4.0898z"/>
  <path d="m341.92 313.65c2.3672 1.8672 5.7422 1.4336 7.5352-0.85938 1.8672-2.2969 1.4336-5.7422-0.85938-7.5352-4.5195-3.5859-8.0352-8.3945-10.332-14.277-4.7344-12.27-3.5156-25.402 3.3711-35.23 9.9727-14.207 27.984-18.082 53.387-11.48 29.062 7.5352 51.305 9.832 66.23 6.6719 16-3.3711 30.996-2.082 43.34 3.875 24.109 11.551 39.25 32.648 44.988 62.855 2.2227 11.77 2.2969 23.035 0.070313 33.508-0.21484 1.0781-0.50391 2.0078-0.71875 2.9414l-0.21484 0.78906c-0.71875 2.8711 1.0039 5.8125 3.875 6.5312 0.42969 0.14062 0.93359 0.21484 1.3633 0.21484 2.3672 0 4.5938-1.5781 5.168-4.0195l0.21484-0.71875c0.28516-1.1484 0.57422-2.2227 0.85937-3.5156 2.4414-11.91 2.4414-24.613-0.070312-37.742-7.9648-41.977-32.074-61.566-50.945-70.535-14.496-6.8867-31.859-8.5391-50.227-4.6641-9.1133 1.9375-27.125 2.3672-61.277-6.5312-37.672-9.832-56.039 3.0859-64.867 15.715-8.9688 12.773-10.691 29.707-4.5938 45.277 3.0117 7.6055 7.6055 13.922 13.703 18.73z"/>
 </g>
</svg>
