<?xml version="1.0" encoding="UTF-8"?>
<svg width="752pt" height="752pt" version="1.1" viewBox="0 0 752 752" xmlns="http://www.w3.org/2000/svg">
 <g>
  <path d="m423.49 419.21v-14.652c0-2.0391-1.6602-3.6992-3.6992-3.6992h-1.0508c-6.1211 0-11.098-4.9805-11.098-11.098v-30.887h-13.492c-10.867 0-21.184 4.7773-28.215 13.062l-40.754 48.039c-0.042969 0.050782-0.09375 0.085938-0.13672 0.13281l9.7656 8.2109c1.5664 1.3164 1.7656 3.6484 0.45312 5.2148-0.73438 0.87109-1.7812 1.3203-2.8359 1.3203-0.83984 0-1.6836-0.28516-2.3789-0.86719l-20.91-17.574-38.551-30.426-31.484-25.469v-21.512h125.8c2.0469 0 3.6992-1.6562 3.6992-3.6992 0-2.043-1.6562-3.6992-3.6992-3.6992l-125.8-0.003907v-92.496c0-4.0859-3.3125-7.3984-7.3984-7.3984-4.0859 0-7.3984 3.3125-7.3984 7.3984v92.496h-33.297c-2.043 0-3.6992-1.6602-3.6992-3.6992l-0.003906-136.89c0-2.0391 1.6602-3.6992 3.6992-3.6992h244.19c2.043 0 3.6992 1.6602 3.6992 3.6992v11.098c0 2.043 1.6562 3.6992 3.6992 3.6992 2.0469 0 3.6992-1.6562 3.6992-3.6992v-11.098c0-6.1211-4.9805-11.098-11.098-11.098h-244.19c-6.1211 0-11.098 4.9805-11.098 11.098v136.89c0 6.1211 4.9805 11.098 11.098 11.098h33.297v9.75c-1.9414-1.1406-4.082-1.7148-6.2188-1.7148-4.0586 0-8.0586 1.9922-10.43 5.7188-2.3867 3.7461-2.5742 8.4883-0.49219 12.41l4.4688 8.4258c2.8438 5.3594 3.7305 11.543 2.5117 17.484-1.9219 9.375 1.4375 19.051 8.7578 25.219l1.4062 1.1836v99.121c0 4.0859 3.3125 7.3984 7.3984 7.3984 4.0859 0 7.3984-3.3125 7.3984-7.3984v-86.422l61.789 53.078c14.723 12.648 36.715 11.77 50.383-2.0156l22.871-23.07s-3.3438 22.227 9.6562 37.363c1.1992 1.3945 1.7383 3.2422 1.6641 5.0781l-2.5859 63.992c-0.16797 4.1992 3.1914 7.6992 7.3945 7.6992h63.422v-118.29l-26.953-26.953c-2.0977-2.0977-3.2539-4.8828-3.2539-7.8477zm-205.32-49.082-4.4688-8.4258c-0.83203-1.5703-0.75781-3.4727 0.19531-4.9727 0.91406-1.4336 2.4805-2.293 4.1875-2.293 0.78906 0 1.9688 0.19141 3.0938 1.1016l3.1289 2.5273 14.801 11.969 21.414 17.32-21.418 30.031-1.2852 1.8047-10.148-8.5508c-1.3008-1.0977-2.4258-2.3516-3.3633-3.7148-2.8438-4.1367-3.9492-9.3047-2.9102-14.359 1.5586-7.6094 0.41406-15.578-3.2266-22.438z"/>
  <path d="m507.16 359.02v30.738c0 6.1211-4.9805 11.098-11.098 11.098h-1.0508c-2.043 0-3.6992 1.6602-3.6992 3.6992v14.652c0 2.9648-1.1562 5.7539-3.25 7.8477l-26.961 26.957v118.29h64.352l-5.2305-71.07c-0.22266-2.9883 0.79297-5.918 2.8633-8.2461 6.8594-7.7305 8.3242-27.75 8.3125-34.809-0.003906-2.043 1.6523-3.7031 3.6914-3.707h0.007812c2.043 0 3.6953 1.6523 3.6992 3.6914 0.003906 1.1523-0.070313 28.332-10.184 39.734-0.73047 0.82031-1.0859 1.8086-1.0156 2.7852l5.2695 71.617h25.809c3.9883 0 7.2578-3.1602 7.3945-7.1445l4.7617-137.39c1.2773-36.684-27.355-67.195-63.672-68.75zm-23.859 183.48c-4.0859 0-7.3984-3.3125-7.3984-7.3984 0-4.0859 3.3125-7.3984 7.3984-7.3984s7.3984 3.3125 7.3984 7.3984c0 4.0859-3.3125 7.3984-7.3984 7.3984zm0-33.301c-4.0859 0-7.3984-3.3125-7.3984-7.3984s3.3125-7.3984 7.3984-7.3984 7.3984 3.3125 7.3984 7.3984-3.3125 7.3984-7.3984 7.3984zm0-33.297c-4.0859 0-7.3984-3.3125-7.3984-7.3984s3.3125-7.3984 7.3984-7.3984 7.3984 3.3125 7.3984 7.3984-3.3125 7.3984-7.3984 7.3984z"/>
  <path d="m415.04 359.99v29.762c0 2.0391 1.6602 3.6992 3.6992 3.6992h1.0508c6.1211 0 11.098 4.9805 11.098 11.098v14.652c0 0.97266 0.39453 1.9258 1.082 2.6172l21.727 21.723v-44.391c-3.875-0.78516-7.5469-2.8047-10.355-6.0859z"/>
  <path d="m461.1 399.15v44.391l21.723-21.723c0.69141-0.69141 1.082-1.6406 1.082-2.6172v-14.652c0-6.1211 4.9805-11.098 11.098-11.098h1.0508c2.043 0 3.6992-1.6602 3.6992-3.6992v-29.762l-28.301 33.074c-2.8047 3.2852-6.4766 5.3008-10.352 6.0859z"/>
  <path d="m528.2 339c5.2344 0 8.7422-5.2695 6.8555-10.152-7.9297-20.512-6.5-37.578-6.5-37.578 2.3672-40.82-30.094-75.219-70.98-75.219s-73.352 34.402-70.98 75.219c0 0 0.74219 16.863-6.9023 37.73-1.7773 4.8477 1.7461 10 6.9102 10h28.98c11.434 9.2422 25.969 14.797 41.816 14.797 15.848 0 30.383-5.5586 41.816-14.801zm-70.801 7.3984c-10.367 0-20.113-2.6953-28.598-7.3984-18.012-9.9844-30.277-29.078-30.562-51.023 3.8477-0.125 7.5312-0.35938 11.066-0.6875 0.046874 12.219 9.9648 22.109 22.195 22.109 10.996 0 20.102-8.0039 21.867-18.5h8.0664c1.7617 10.496 10.867 18.5 21.863 18.5 12.262 0 22.199-9.9375 22.199-22.199s-9.9375-22.199-22.199-22.199c-10.996 0-20.102 8.0039-21.867 18.5h-8.0664c-0.41016-2.4375-1.1914-4.7422-2.3281-6.8398 25.824-12.254 34.633-31.078 37.414-39.762 16.859 10.445 28.148 29.059 28.148 50.301 0 22.273-12.375 41.695-30.602 51.797-8.4883 4.707-18.23 7.4023-28.598 7.4023zm-11.102-59.199c0 8.1602-6.6406 14.801-14.801 14.801s-14.801-6.6406-14.801-14.801c0-0.26562 0.066407-0.51562 0.078126-0.77734 0.41797-7.793 6.832-14.02 14.727-14.02 5.3789 0 10.051 2.9141 12.641 7.2148 1.3398 2.2266 2.1562 4.8008 2.1562 7.582zm22.199 0c0-8.1602 6.6406-14.801 14.801-14.801s14.801 6.6406 14.801 14.801-6.6406 14.801-14.801 14.801-14.801-6.6367-14.801-14.801z"/>
  <path d="m300.55 217.72c-22.98 4.2148-40.25 24.77-39.324 49.176 0.94141 24.758 21.426 45.242 46.184 46.184 24.406 0.92578 44.957-16.34 49.176-39.324 0.83203-4.5391-2.6953-8.7305-7.3086-8.7305h-32.59c-4.0859 0-7.3984-3.3125-7.3984-7.3984v-32.59c-0.003907-4.625-4.1992-8.1484-8.7383-7.3164z"/>
  <path d="m369.07 253.57c2.1016-2.5156 2.9727-5.793 2.3945-8.9922-3.832-21.082-20.57-37.82-41.652-41.648-3.1992-0.57812-6.4766 0.28906-8.9922 2.3906-2.5508 2.125-4.0117 5.25-4.0117 8.5664v32.598c0 6.1211 4.9805 11.098 11.098 11.098h32.598c3.3164 0 6.4414-1.4609 8.5664-4.0117zm-44.863-7.0859v-32.598c0-1.1172 0.49609-2.168 1.3555-2.8906 0.41016-0.33984 1.1992-0.84766 2.2852-0.84766 0.20703 0 0.42188 0.019531 0.64844 0.058594 18.066 3.2812 32.41 17.625 35.691 35.691 0.25781 1.418-0.38281 2.4414-0.79297 2.9297-0.71875 0.86328-1.7695 1.3555-2.8867 1.3555h-32.602c-2.0391 0-3.6992-1.6602-3.6992-3.6992z"/>
 </g>
</svg>
