<?xml version="1.0" encoding="UTF-8"?>
<svg width="752pt" height="752pt" version="1.1" viewBox="0 0 752 752" xmlns="http://www.w3.org/2000/svg">
 <g>
  <path d="m308.29 423.73c0 3.0508-2.4961 5.5508-5.5508 5.5508-3.0508 0-5.5508-2.4961-5.5508-5.5508 0-15.633 12.672-28.305 28.395-28.305 15.633 0 28.305 12.672 28.305 28.305 0 3.0508-2.4961 5.5508-5.5508 5.5508-3.0508 0-5.5508-2.4961-5.5508-5.5508 0-9.5273-7.7695-17.203-17.297-17.203-9.5234-0.09375-17.199 7.6758-17.199 17.203z"/>
  <path d="m225.14 395.52c15.539 0.09375 28.117 12.672 28.211 28.211 0 3.0508-2.4961 5.5508-5.5508 5.5508-3.0508 0-5.5508-2.4961-5.5508-5.5508-0.09375-9.5273-7.8633-17.203-17.391-17.113-9.4336 0.09375-17.02 7.6758-17.113 17.113 0 3.0508-2.4961 5.5508-5.5508 5.5508-3.0508 0-5.5508-2.4961-5.5508-5.5508 0.10156-15.727 12.863-28.305 28.496-28.211z"/>
  <path d="m230.5 490.7c3.0508 0 5.5508 2.4961 5.5508 5.5508-0.09375 19.793 15.91 35.98 35.703 36.074 19.793 0.09375 35.98-15.91 36.074-35.703v-0.37109c0-3.0508 2.4961-5.5508 5.5508-5.5508 3.0508 0 5.5508 2.4961 5.5508 5.5508 0.09375 25.898-20.812 47.082-46.805 47.172-25.898 0.09375-47.082-20.812-47.172-46.805v-0.37109c0-3.0469 2.4023-5.5469 5.5469-5.5469z"/>
  <path d="m166.96 358.89 180.83-0.18359-9.4336-21.09c-10.637-23.957-8.418-61.879 4.9961-86.484l52.719-96.012c1.4805-2.6836 4.8086-3.6992 7.4922-2.2188l184.07 100.73c2.6836 1.4805 3.6992 4.8086 2.2188 7.4922l-52.723 96.195c-13.227 24.141-44.77 46.895-70.203 50.781l-66.781 9.9883c-1.5742 0.27734-3.2383 0.37109-4.9023 0.37109-4.4414 0-8.8789-0.92578-12.949-2.7734v58.363c0 27.562-16.648 62.621-37.184 78.25l-53.742 40.883c-11.562 8.7891-27.656 8.7891-39.219 0l-53.742-40.883c-20.812-15.816-37.184-50.227-37.184-78.25l0.003906-109.61c0.18359-3.0508 2.6836-5.5469 5.7344-5.5469zm215.42 5.457v38.664c4.625 3.6055 10.453 5.1797 16.188 4.2539l66.781-9.9883c22.105-3.3281 50.504-23.957 62.066-45.137l50.039-91.293-174.26-95.461-50.039 91.203c-11.746 21.461-13.875 55.867-4.625 76.586l11.379 25.621h16.836c3.1406 0 5.6367 2.4961 5.6367 5.5508zm-177.04 179.07 53.742 40.883c7.5859 5.7344 18.129 5.7344 25.805 0l53.555-40.883c17.758-13.504 32.742-45.324 32.742-69.371v-104.15l-198.68 0.18359v103.96c0.003906 24.512 14.711 55.59 32.84 69.371z"/>
  <path d="m503.55 258.71c14.984-4.3477 30.801 4.2539 35.148 19.238 2.1289 7.2148 1.2969 14.984-2.3125 21.551-1.4805 2.6836-4.8086 3.6992-7.4922 2.2188-2.6836-1.4805-3.6992-4.8086-2.2188-7.4922 4.5312-8.3242 1.4805-18.871-6.8438-23.402s-18.871-1.4805-23.402 6.8438c-1.4805 2.6836-4.8086 3.6992-7.4922 2.2188s-3.6992-4.8086-2.2188-7.4922c3.5117-6.6523 9.6172-11.555 16.832-13.684z"/>
  <path d="m443.34 254.09c-3.0508 0-5.5508-2.4961-5.5508-5.5508 0-0.92578 0.27734-1.8516 0.64844-2.6836 4.5312-8.3242 1.4805-18.871-6.8438-23.402-8.3242-4.5312-18.871-1.4805-23.402 6.8438-1.4805 2.6836-4.9023 3.6055-7.5859 2.1289-2.5898-1.4805-3.6055-4.8086-2.1289-7.3984 7.4922-13.688 24.789-18.777 38.477-11.191 13.688 7.4922 18.777 24.789 11.191 38.477-0.91797 1.7617-2.7695 2.7773-4.8047 2.7773z"/>
  <path d="m369.06 336.6c12.117-22.66 40.234-31.172 62.898-19.055 0.27734 0.18359 0.55469 0.27734 0.83203 0.46094 22.66 12.211 31.172 40.422 18.961 63.082-0.09375 0.18359-0.27734 0.46094-0.37109 0.64844-1.4805 2.6836-4.8086 3.6992-7.4922 2.2188s-3.6992-4.8086-2.2188-7.4922c9.6211-17.297 3.3281-39.125-14.059-48.746-17.297-9.6211-39.125-3.3281-48.746 14.059 0 0.09375-0.09375 0.18359-0.09375 0.27734-1.4805 2.6836-4.8086 3.6992-7.4922 2.2188-2.6836-1.4727-3.6992-4.9883-2.2188-7.6719z"/>
 </g>
</svg>
