<?xml version="1.0" encoding="UTF-8"?>
<svg width="752pt" height="752pt" version="1.1" viewBox="0 0 752 752" xmlns="http://www.w3.org/2000/svg">
 <g>
  <path d="m478.89 310.68c-26.445-8.7461-52.363-21.164-77.734-37.039-9.9258 17.375-18.227 33.805-24.926 49.301-4.457-24.957-12.316-53.059-23.668-84.387-24.938 15.438-51.602 27.102-79.789 35.195-29.906 8.4219-61.758 12.738-95.34 12.844 5.5117 120.66 42.387 180.97 110.6 180.97 5.2773 0 10.73-0.35547 16.375-1.0781 2.0547-0.4375 4.2148-0.875 6.2617-1.1953 0.97656-0.21484 1.8359-0.4375 2.8086-0.64844 19.758-5.1953 35.117-14.457 46.152-27.715 7.4766 24.57 24.961 43.312 52.539 56.199 2.0664 0.75781 4.1016 1.6289 6.1562 2.3789 0.97266 0.32031 1.8477 0.66016 2.8164 0.97266 72.23 22.992 123.29-33.676 153.42-169.95-32.613-0.30859-64.469-5.5977-95.676-15.852zm-121.45 106.64c-9.1953 17.527-24.57 28.93-46.984 34.871-0.47266 0.097656-0.9375 0.22266-1.3906 0.32031l-0.84766 0.19531c-1.7227 0.28516-3.6289 0.64844-5.918 1.1172-4.9062 0.60938-9.6992 0.91016-14.254 0.91016-29.59 0-51.789-12.785-67.875-39.098-15.883-25.977-25.676-65.133-29.176-116.5 29.699-1.0898 58.332-5.4727 85.336-13.074 24.332-7.0039 47.574-16.59 69.293-28.594 24.887 73.613 28.871 127.34 11.816 159.85zm96.73-58.918c-27.422 17.598-48.152 12.094-62.07-16.516 17.371 10.254 37.996 15.762 62.07 16.516zm19.98 105.28c-0.87109 1.293-1.9414 1.4062-3.3477 0.4375-8.7461-9.7148-19.004-19.008-30.988-27.738-0.97266-0.75781-2.0547-1.4141-3.0273-2.1641-13.387-2.8125-27.645-3.2383-42.652-1.1836-1.7305-1.4062-1.1836-3.5664 1.5078-6.3828 1.1953-0.97266 2.4766-1.9375 3.7852-2.9023 4.9688-3.1289 10.258-5.2891 15.98-6.4805 6.1562-1.6211 12.094-2.4727 17.82-2.8086 4.6367 0 8.8516 0.87109 12.637 2.4766 3.5547 1.5078 6.5859 3.7734 9.2773 6.8086 5.7266 6.375 10.695 13.383 14.691 21.266 3.5625 5.2891 5.1914 10.578 4.7539 16.082-0.015625 0.96484-0.11719 1.832-0.4375 2.5898zm0.42188-99.332c18.137 15.652 37.027 25.262 56.691 29.039-29.477 11.984-48.379 2.2695-56.691-29.039z"/>
  <path d="m271.91 343.29c-22.785-22.129-44.051-20.297-63.598 5.7227 22.785-7.4453 43.949-9.3867 63.598-5.7227z"/>
  <path d="m341.12 361.97c-12.309 14.145-25.914 25.371-40.711 33.578-0.53516 0.10938-1.0781 0.10938-1.6211 0.21484-18.043 1.6289-35.086 1.6289-51.18-0.097657l-3.4531-0.4375c-2.6992 2.6992-2.4805 5.4023 0.75391 8.2031 5.1875 4.4336 11.234 7.5664 18.035 9.5039 10.797 4.1016 21.922 6.5938 33.473 7.4492 1.4023 0 2.6953 0 4.1016 0.097657 1.1875-0.097657 2.3789-0.21484 3.4531-0.3125 5.8359-0.97656 10.695-3.7852 14.691-8.4219 6.5938-6.1562 12.848-13.715 18.68-22.676 4.8555-7.668 7.2305-13.824 6.9102-18.352-0.32031-4.6445-0.86719-7.4492-1.4023-8.4258-0.54297-0.21875-1.0859-0.32422-1.7305-0.32422z"/>
  <path d="m296.32 337.57c16.301-11.77 36.281-19.113 60.031-21.812-28.719-15.223-48.695-7.9844-60.031 21.812z"/>
 </g>
</svg>
